<?xml version="1.0" encoding="UTF-8" standalone="no"?>
<svg
        width="200mm"
        height="200mm"
        viewBox="0 0 200 200"
        version="1.1"
        id="svg1"
        xml:space="preserve"
        xmlns="http://www.w3.org/2000/svg"
        xmlns:svg="http://www.w3.org/2000/svg">
    <g id="logo" transform="translate(-16.57753,-62.677267)">
        <path
                style="display:inline;fill:#f2561d;fill-opacity:1"
                d="M 110.59181,248.85291 C 35.818555,241.49562 3.2453048,154.15907 55.676708,101.61262 106.86178,50.315224 193.71497,80.98785 202.58675,153.49461 c 6.337,51.79057 -40.57506,100.41774 -91.99494,95.3583 z m 12.96458,-22.35894 c 44.13047,-4.33498 70.35759,-52.2127 50.6554,-92.47165 C 153.36338,91.421225 93.812703,85.790093 65.35712,123.72899 c -33.839991,45.11775 1.9375,108.29162 58.19927,102.76498 z M 90.397038,199.41895 c -2.27076,-0.73821 -3.863564,-2.26311 -4.994552,-4.78163 -0.448704,-0.99919 -0.475263,-2.81784 -0.475263,-32.54375 v -31.48542 l 0.617514,-1.27897 c 2.722923,-5.63961 10.469856,-6.23157 14.997063,-1.14594 0.79864,0.89714 7.70655,10.20366 15.35091,20.68116 7.64437,10.4775 14.07352,19.0885 14.287,19.13555 0.33808,0.0745 0.38814,-2.16759 0.38814,-17.38333 0,-20.45912 0.0616,-21.01091 2.62228,-23.50365 4.54438,-4.42374 12.50992,-2.60266 14.61951,3.34229 l 0.61759,1.74039 0.0771,28.97188 c 0.0904,33.95364 0.12132,33.44829 -2.21563,36.22559 -1.86406,2.21532 -6.4656,3.0998 -9.72933,1.87013 -2.5982,-0.97893 -3.90934,-2.5848 -19.06057,-23.3452 -7.83248,-10.73216 -14.40646,-19.51302 -14.60885,-19.51302 -0.31044,0 -0.36829,2.67882 -0.36997,17.13177 -0.002,20.39328 -0.0821,21.15473 -2.49524,23.82576 -1.865915,2.06534 -6.533509,3.06229 -9.627742,2.05639 z"
                id="path1"/>
    </g>
</svg>
